a4e739ebe07c75dd569156d5038696a9 *tests/data/fate/spdif-dca-core-remux.spdif
14336 tests/data/fate/spdif-dca-core-remux.spdif
#tb 0: 1/90000
#media_type 0: audio
#codec_id 0: dts
#sample_rate 0: 48000
#channel_layout_name 0: 5.1(side)
0,          0,          0,        0,     1024, 0x07b79d2a
0,          0,          0,        0,     1024, 0x7eaaba77
0,          0,          0,        0,     1024, 0xbed65c1d
0,          0,          0,        0,     1024, 0x10bc6792
0,          0,          0,        0,     1024, 0xf8436f6e
0,          0,          0,        0,     1024, 0x4454a681
0,          0,          0,        0,     1024, 0xda3ba189
